<?xml version="1.0" encoding="UTF-8" standalone="no"?>
<svg
   width="24"
   height="24"
   viewBox="0 0 24 24"
   fill="none"
   version="1.1"
   id="svg4"
   sodipodi:docname="Detail-white.svg"
   inkscape:version="1.1.2 (b8e25be833, 2022-02-05)"
   xmlns:inkscape="http://www.inkscape.org/namespaces/inkscape"
   xmlns:sodipodi="http://sodipodi.sourceforge.net/DTD/sodipodi-0.dtd"
   xmlns="http://www.w3.org/2000/svg"
   xmlns:svg="http://www.w3.org/2000/svg">
  <defs
     id="defs8" />
  <sodipodi:namedview
     id="namedview6"
     pagecolor="#ffffff"
     bordercolor="#666666"
     borderopacity="1.0"
     inkscape:pageshadow="2"
     inkscape:pageopacity="0.0"
     inkscape:pagecheckerboard="0"
     showgrid="false"
     inkscape:zoom="36.375"
     inkscape:cx="11.986254"
     inkscape:cy="11.986254"
     inkscape:window-width="2400"
     inkscape:window-height="1494"
     inkscape:window-x="-11"
     inkscape:window-y="-11"
     inkscape:window-maximized="1"
     inkscape:current-layer="svg4" />
  <path
     d="M22 12C22 17.523 17.523 22 12 22C6.477 22 2 17.523 2 12C2 6.477 6.477 2 12 2C17.523 2 22 6.477 22 12ZM20 12C20 9.87827 19.1571 7.84344 17.6569 6.34315C16.1566 4.84285 14.1217 4 12 4C9.87827 4 7.84344 4.84285 6.34315 6.34315C4.84285 7.84344 4 9.87827 4 12C4 14.1217 4.84285 16.1566 6.34315 17.6569C7.84344 19.1571 9.87827 20 12 20C14.1217 20 16.1566 19.1571 17.6569 17.6569C19.1571 16.1566 20 14.1217 20 12ZM11 18V11H13V18H11ZM12 9.25C11.8368 9.2516 11.675 9.22018 11.5243 9.15762C11.3736 9.09507 11.2371 9.00267 11.123 8.886C11.0025 8.77246 10.9071 8.63499 10.8429 8.48241C10.7786 8.32984 10.747 8.16552 10.75 8C10.75 7.652 10.873 7.356 11.122 7.114C11.369 6.872 11.662 6.75 12 6.75C12.337 6.75 12.63 6.872 12.877 7.114C13.125 7.356 13.25 7.652 13.25 8C13.25 8.348 13.126 8.644 12.877 8.886C12.7629 9.00267 12.6264 9.09507 12.4757 9.15762C12.325 9.22018 12.1632 9.2516 12 9.25Z"
     fill="#141414"
     id="path2"
     style="fill:#ffffff;fill-opacity:1" />
</svg>
